IKResults
version=1
nRows=5
nColumns=45
inDegrees=yes

Units are S.I. units (second, meters, Newtons, ...)
If the header above contains a line with 'inDegrees', this indicates whether rotational values are in degrees (yes) or radians (no).

endheader
time	pelvis_tilt	pelvis_list	pelvis_rotation	pelvis_tx	pelvis_ty	pelvis_tz	hip_flexion_r	hip_adduction_r	hip_rotation_r	knee_angle_r	knee_adduction_r	knee_angle_r_beta	ankle_angle_r	subtalar_angle_r	mtp_angle_r	hip_flexion_l	hip_adduction_l	hip_rotation_l	knee_angle_l	knee_adduction_l	knee_angle_l_beta	ankle_angle_l	subtalar_angle_l	mtp_angle_l	lumbar_extension	lumbar_bending	lumbar_rotation	thoracic_extension	thoracic_bending	thoracic_rotation	arm_flex_r	arm_add_r	arm_rot_r	elbow_flex_r	pro_sup_r	wrist_flex_r	wrist_dev_r	arm_flex_l	arm_add_l	arm_rot_l	elbow_flex_l	pro_sup_l	wrist_flex_l	wrist_dev_l
      0.82500000	      7.82012080	     -2.74785639	      0.79457621	      0.61055529	      0.94569205	      0.49992796	     13.42165140	      7.96921871	      4.40611129	     22.85527332	      0.00000001	      0.39889977	      6.06190882	    -14.18931578	    -17.15323223	    -11.54593689	     -4.62780187	     -0.70607532	     47.29987987	      0.00000000	      0.82553864	     -2.84586123	    -16.05892688	    -25.33227587	    -12.04303009	      4.24589074	     -6.06507401	      0.00000000	      0.00000000	      0.00000000	     -2.71569718	    -11.29649385	     -2.29674060	     25.67890505	     89.99911678	      0.00000000	      0.00000000	      5.18030995	    -17.05697686	      4.42893073	     45.24797044	     89.99945425	      0.00000000	      0.00000000
      0.83742857	      7.71618225	     -2.87670567	      1.40938172	      0.61173360	      0.94714389	      0.50094736	     12.65423147	      8.13907665	      3.93741645	     22.95503916	      0.00000001	      0.40064101	      7.13465584	    -13.96084457	    -16.87282072	     -8.90578877	     -4.91694103	      0.48083793	     51.69465574	      0.00000000	      0.90224195	     -5.69425128	    -17.01907333	    -23.28530595	    -11.75561975	      4.43450307	     -6.32781051	      0.00000000	      0.00000000	      0.00000000	     -2.26067930	    -11.26982248	     -2.25721902	     26.34771908	     89.99911678	      0.00000000	      0.00000000	      4.79153772	    -16.49978933	      5.12553998	     42.84176620	     89.99945425	      0.00000000	      0.00000000
      0.84985714	      7.71085884	     -3.00988681	      2.01406946	      0.61246282	      0.94875659	      0.50179293	     11.67773294	      8.32040126	      3.51372847	     22.83540260	      0.00000001	      0.39855296	      8.05352481	    -13.73064346	    -16.58784403	     -6.29870170	     -5.10816567	      1.70123512	     55.85943453	      0.00000000	      0.97493105	     -7.66217806	    -17.54630498	    -20.59398252	    -11.61795220	      4.62130861	     -6.47347393	      0.00000000	      0.00000000	      0.00000000	     -1.80355232	    -11.30339853	     -2.22488014	     27.14438418	     89.99911678	      0.00000000	      0.00000000	      4.51795966	    -15.90762498	      5.86819748	     40.52938169	     89.99945425	      0.00000000	      0.00000000
      0.86228571	      7.57411508	     -3.02778683	      2.49490867	      0.61278922	      0.95024528	      0.50243492	     10.81610258	      8.35433696	      3.08763802	     22.62964150	      0.00000001	      0.39496175	      9.01938800	    -13.28172944	    -16.37512752	     -3.53434829	     -5.01538088	      2.82399850	     59.74085760	      0.00000000	      1.04267466	     -8.11022725	    -17.37571538	    -14.60217169	    -11.39454576	      4.69990354	     -6.28940663	      0.00000000	      0.00000000	      0.00000000	     -1.45530685	    -11.35781086	     -2.60898143	     28.11632127	     89.99911678	      0.00000000	      0.00000000	      4.49989530	    -15.44648748	      7.60879656	     38.00744445	     89.99945425	      0.00000000	      0.00000000
      0.87471429	      7.77760036	     -3.05854723	      2.99076340	      0.61295326	      0.95226606	      0.50305092	      9.40052400	      8.44789749	      2.78241800	     22.06589002	      0.00000001	      0.38512243	      9.62601816	    -13.10257198	    -16.18887142	     -1.25541991	     -4.93009522	      3.86691580	     63.00001457	      0.00000000	      1.09955768	     -8.89320641	    -17.74453462	    -13.33276607	    -11.58106171	      4.78093606	     -6.33012521	      0.00000000	      0.00000000	      0.00000000	     -0.84557438	    -11.45908465	     -2.47524000	     29.01039534	     89.99911678	      0.00000000	      0.00000000	      4.09930191	    -14.91113567	      8.03378569	     36.25653749	     89.99945425	      0.00000000	      0.00000000
